# xmcd
#
# Track frame offsets:
#	150
#	10822
#	19550
#	27018
#	38783
#	53116
#	62077
#	74563
#	88719
#	99494
#	111123
#	125801
#	137631
#	147176
#	158248
#	171128
#	179322
#	189538
#	203022
#	216482
#	235247
#
# Disc length: 3315 seconds
#
# Revision: 1
# Processed by: cddbd v1.5.2PL0 Copyright (c) Steve Scherf et al.
# Submitted via: EZCDAudioConverter 2.1.7.1
#
DISCID=290cf115
DTITLE=V/A - Eccentric Soul: The Dynamic Label
DYEAR=2013
DGENRE=
TTITLE0=The Commands - Hey Its Love
TTITLE1=Little Jr. Jesse and The Tear Drops - Give Your Love To Me
TTITLE2=The Tonettes - I Gotta Know
TTITLE3=Doc and Sal - Can't Get You Offa My Mind
TTITLE4=The Commands - I've Got Love For My Baby
TTITLE5=Willie Cooper and The Webs - You Don't Love Nobody
TTITLE6=Little Jr. Jesse and The Tear Drops - Ain't No Big Thing
TTITLE7=The Commands - No Time For You
TTITLE8=The Webs - Little Girl Blue
TTITLE9=The Tonettes - My Heart Can Feel The Pain
TTITLE10=Doc and Sal - Cry and Wonder Why
TTITLE11=The Commands - Don't Be Afraid To Love Me
TTITLE12=Willie Cooper and The Webs - I Can't Take It No More
TTITLE13=Don and The Doves - Together
TTITLE14=The Webs - Don't Ever Hurt Me
TTITLE15=The Commands - Must Be Alright
TTITLE16=Bobby Blackmon and The Soul Express - She's Gotta Have Soul
TTITLE17=Doc and Sal - Laughing To Keep From Crying
TTITLE18=The Webs - Try Loving Me
TTITLE19=The Commands - Too Late To Cry
TTITLE20=Doc and Sal - My Dream
EXTD=
EXTT0=
EXTT1=
EXTT2=
EXTT3=
EXTT4=
EXTT5=
EXTT6=
EXTT7=
EXTT8=
EXTT9=
EXTT10=
EXTT11=
EXTT12=
EXTT13=
EXTT14=
EXTT15=
EXTT16=
EXTT17=
EXTT18=
EXTT19=
EXTT20=
PLAYORDER=
